<svg xmlns="http://www.w3.org/2000/svg" width="424.98" height="99.908" viewBox="0 0 424.98 99.908">
  <g id="LOGO_GROUP" data-name="LOGO GROUP" transform="translate(-65.993 -344.589)">
    <g id="Layer_1" data-name="Layer 1" transform="translate(65.993 344.589)">
      <path id="Path_5" data-name="Path 5" d="M441.528,344.589H65.993V444.5h424.98v-64.18S491.312,344.589,441.528,344.589Z" transform="translate(-65.993 -344.589)" fill="#e5e3ee"/>
    </g>
    <g id="Layer_1_copy" data-name="Layer 1 copy" transform="translate(98.79 344.589)">
      <path id="Path_6" data-name="Path 6" d="M100.25,444.5h25.212v-39.49H100.25Zm342.737-99.908H203.216v22.565H158.553v16.509h35.062V406.5H158.553v38H492.433v-64.18S492.772,344.589,442.987,344.589Z" transform="translate(-100.25 -344.589)" fill="#c07500"/>
      <text id="Associates" transform="translate(291.27 82.265)" fill="#fff" font-size="16" font-family="Raleway-Regular, Raleway"><tspan x="-39.472" y="0">Associates</tspan></text>
      <text id="Medical_" data-name="Medical 
" transform="translate(298.877 53.222)" fill="#fff" font-size="25" font-family="Raleway-Regular, Raleway"><tspan x="-48.588" y="0">Medical </tspan><tspan x="0" y="14"></tspan></text>
      <path id="Path_7" data-name="Path 7" d="M344.378,414.981s16.056-8.908,70.278.112,65.35-1.728,71.986-5.382c0,0-18.484,13.793-71.965,3.427-54.4-7.674-70.258,1.629-70.258,1.629Z" transform="translate(-110.651 -347.364)" fill="#30115b"/>
    </g>
    <g id="Layer_2" data-name="Layer 2" transform="translate(98.79 344.589)">
      <rect id="Rectangle_59" data-name="Rectangle 59" width="25.212" height="35.728" transform="translate(0)" fill="#30115b"/>
    </g>
  </g>
</svg>
